# File created by Blade
# Date/Time:  Thu Sep 25 19:26:26 2014
# Frame Rate: 120.000 fps
#------------------------------------------------------
:FULLY-SPECIFIED
:DEGREES
455
root -3.221172 31.739682 -11.595577 109.166761 -24.837108 -6.804598
Spine 41.103367 8.032106 18.552533
Head 8.519833 -15.861818 14.032998
LeftShoulder 1.510424 -19.154751 49.440298
LeftArm 58.014544 -43.120308 -28.302956
LeftForeArm 48.195625 -0.000000 47.923106
LeftHand -33.313342 -0.000000 44.450335
LeftHandThumb1 -26.253704 0.000000 33.147579
RightShoulder 3.151761 67.453836 -44.917373
RightArm 12.166537 10.577061 44.187512
RightForeArm -32.267445 -0.000000 42.746958
RightHand -8.981980 -0.000000 -53.246841
RightHandThumb1 -24.326973 -0.000000 -32.862282
LeftUpLeg -105.475866 20.182760 -26.268371
LeftLeg -1.703801 -0.000000 0.000000
LeftFoot -8.810821 19.545185 -38.568001
LeftToeBase 10.600877 -0.000000 -0.000000
RightUpLeg -117.781314 -0.955976 5.266977
RightLeg 0.791127 -0.000000 -0.000000
RightFoot 6.557520 5.245672 5.674236
RightToeBase 0.045484 -0.000000 -0.000000
456
root -3.213834 31.740451 -11.599915 109.146962 -24.780397 -6.782079
Spine 41.077509 8.038760 18.494497
Head 8.497503 -15.849360 13.999083
LeftShoulder 1.527123 -19.196653 49.469912
LeftArm 57.939295 -43.078227 -28.504326
LeftForeArm 48.427091 -0.000000 48.377051
LeftHand -33.235343 -0.000000 43.563613
LeftHandThumb1 -26.253704 0.000000 33.147579
RightShoulder 3.256017 67.468717 -44.794976
RightArm 12.071546 10.672331 44.187745
RightForeArm -32.316816 -0.000000 42.722810
RightHand -9.157609 -0.000000 -53.357654
RightHandThumb1 -24.326973 -0.000000 -32.862282
LeftUpLeg -105.471679 20.174742 -26.218447
LeftLeg -1.730200 -0.000000 0.000000
LeftFoot -8.781184 19.514350 -38.606811
LeftToeBase 10.586952 -0.000000 -0.000000
RightUpLeg -117.777286 -1.002466 5.256715
RightLeg 0.787428 -0.000000 -0.000000
RightFoot 6.575777 5.187284 5.690117
RightToeBase 0.056995 -0.000000 -0.000000
457
root -3.207951 31.740659 -11.605079 109.123408 -24.717269 -6.766873
Spine 41.062557 8.051808 18.464229
Head 8.486809 -15.836384 13.905034
LeftShoulder 1.572093 -19.235433 49.458195
LeftArm 57.881871 -43.062103 -28.774289
LeftForeArm 48.109744 -0.000000 49.044113
LeftHand -33.120937 -0.000000 42.080642
LeftHandThumb1 -26.253704 0.000000 33.147579
RightShoulder 3.311921 67.475158 -44.725868
RightArm 11.990378 10.724400 44.194653
RightForeArm -32.280311 -0.000000 42.701258
RightHand -8.932265 0.000000 -53.032321
RightHandThumb1 -24.326973 -0.000000 -32.862282
LeftUpLeg -105.473459 20.173047 -26.178837
LeftLeg -1.759706 -0.000000 0.000000
LeftFoot -8.715404 19.480341 -38.534404
LeftToeBase 10.522706 -0.000000 -0.000000
RightUpLeg -117.762121 -1.043037 5.237497
RightLeg 0.783411 -0.000000 -0.000000
RightFoot 6.568765 5.093128 5.703464
RightToeBase 0.118049 -0.000000 -0.000000
458
root -3.199024 31.741380 -11.607163 109.116794 -24.653542 -6.715488
Spine 40.990229 8.049592 18.489533
Head 8.530426 -15.863114 13.715712
LeftShoulder 1.654239 -19.470566 49.385227
LeftArm 57.735329 -42.885330 -29.036272
LeftForeArm 48.137431 -0.000000 49.701250
LeftHand -33.113297 -0.000000 40.965076
LeftHandThumb1 -26.253704 0.000000 33.147579
RightShoulder 3.172608 67.447420 -44.853460
RightArm 11.985356 10.814474 44.318758
RightForeArm -32.376013 -0.000000 42.607663
RightHand -9.181245 0.000000 -53.123087
RightHandThumb1 -24.326973 -0.000000 -32.862282
LeftUpLeg -105.470846 20.129833 -26.107909
LeftLeg -1.796349 -0.000000 0.000000
LeftFoot -8.703638 19.474114 -38.532796
LeftToeBase 10.600425 -0.000000 -0.000000
RightUpLeg -117.772315 -1.111807 5.258217
RightLeg 0.761967 -0.000000 -0.000000
RightFoot 6.587275 5.052262 5.753938
RightToeBase 0.085820 -0.000000 -0.000000
459
root -3.188383 31.741183 -11.613425 109.067468 -24.602233 -6.664370
Spine 40.983898 8.065713 18.473402
Head 8.452320 -15.912141 13.683896
LeftShoulder 1.688193 -19.456344 49.352351
LeftArm 57.714803 -42.896245 -29.264848
LeftForeArm 48.136384 -0.000000 50.286764
LeftHand -33.179711 0.000000 40.048744
LeftHandThumb1 -26.253704 0.000000 33.147579
RightShoulder 3.123917 67.407080 -44.870161
RightArm 11.924060 10.875302 44.307232
RightForeArm -32.334736 -0.000000 42.554905
RightHand -9.155739 -0.000000 -53.037074
RightHandThumb1 -24.326973 -0.000000 -32.862282
LeftUpLeg -105.443911 20.095458 -26.039182
LeftLeg -1.813134 -0.000000 0.000000
LeftFoot -8.675547 19.474822 -38.510671
LeftToeBase 10.471953 -0.000000 -0.000000
RightUpLeg -117.761240 -1.190713 5.258854
RightLeg 0.766179 -0.000000 -0.000000
RightFoot 6.585938 4.980824 5.820066
RightToeBase 0.105764 -0.000000 -0.000000
460
root -3.180136 31.742107 -11.618495 109.035724 -24.524132 -6.614704
Spine 40.957747 8.065171 18.458570
Head 8.382735 -15.924724 13.637042
LeftShoulder 1.738534 -19.312642 49.266740
LeftArm 57.677594 -42.983072 -29.390780
LeftForeArm 47.980704 -0.000000 50.900828
LeftHand -33.134619 0.000000 39.213960
LeftHandThumb1 -26.253704 0.000000 33.147579
RightShoulder 3.153058 67.434694 -44.789791
RightArm 11.871657 10.903228 44.299059
RightForeArm -32.330796 -0.000000 42.480852
RightHand -9.153339 -0.000000 -52.939818
RightHandThumb1 -24.326973 -0.000000 -32.862282
LeftUpLeg -105.437145 20.066773 -25.949461
LeftLeg -1.822036 -0.000000 0.000000
LeftFoot -8.684834 19.481791 -38.568196
LeftToeBase 10.524610 -0.000000 -0.000000
RightUpLeg -117.749433 -1.254000 5.285171
RightLeg 0.747151 -0.000000 -0.000000
RightFoot 6.603784 4.921412 5.824475
RightToeBase 0.098871 -0.000000 -0.000000
